<?xml version="1.0" standalone="no"?><!DOCTYPE svg PUBLIC "-//W3C//DTD SVG 1.1//EN" "http://www.w3.org/Graphics/SVG/1.1/DTD/svg11.dtd"><svg t="1689736017042" class="icon" viewBox="0 0 1024 1024" version="1.1" xmlns="http://www.w3.org/2000/svg" p-id="11084" width="32" height="32" xmlns:xlink="http://www.w3.org/1999/xlink"><path d="M512.483556 113.294222c15.957333 0 28.928 12.942222 28.928 28.928v127.089778a28.928 28.928 0 1 1-57.856 0V142.222222c0-15.985778 12.942222-28.928 28.928-28.928z m0 545.962667c15.957333 0 28.928 12.942222 28.928 28.899555v127.089778a28.928 28.928 0 0 1-57.856 0v-127.089778c0-15.957333 12.942222-28.899556 28.928-28.899555z m20.451555-196.266667L864.711111 794.794667a28.928 28.928 0 0 1-40.874667 40.903111L492.032 503.893333a28.928 28.928 0 1 1 40.903111-40.903111z m311.352889-8.476444a28.928 28.928 0 0 1 0 57.856h-127.089778a28.928 28.928 0 1 1 0-57.856h127.089778zM142.336 483.441778c0-15.985778 12.970667-28.928 28.928-28.928h127.089778a28.928 28.928 0 0 1 0 57.856H171.264a28.928 28.928 0 0 1-28.928-28.928z m108.430222 261.717333a28.928 28.928 0 0 1 0-40.903111l89.884445-89.884444a28.928 28.928 0 0 1 40.874666 40.931555l-89.884444 89.884445a28.928 28.928 0 0 1-40.874667 0z m386.019556-386.048a28.928 28.928 0 0 1 0-40.874667l89.884444-89.884444a28.928 28.928 0 0 1 40.903111 40.903111l-89.884444 89.884445a28.928 28.928 0 0 1-40.903111 0z m-248.604445 0a28.928 28.928 0 0 1-40.903111 0l-89.884444-89.856a28.928 28.928 0 1 1 40.903111-40.903111l89.884444 89.884444c11.292444 11.292444 11.292444 29.582222 0 40.874667z" fill="#a84d10" p-id="11085"></path></svg>